<?xml version="1.0" standalone="no"?>
<!DOCTYPE svg PUBLIC "-//W3C//DTD SVG 20010904//EN"
 "http://www.w3.org/TR/2001/REC-SVG-20010904/DTD/svg10.dtd">
<svg version="1.0" xmlns="http://www.w3.org/2000/svg"
 width="300.000000pt" height="76.000000pt" viewBox="0 0 300.000000 76.000000"
 preserveAspectRatio="xMidYMid meet">

<g transform="translate(0.000000,76.000000) scale(0.100000,-0.100000)"
fill="#000000" stroke="none">
<path d="M1298 700 c-27 -16 -57 -73 -71 -136 l-13 -59 -43 -3 -42 -3 20 40
c26 50 27 102 3 124 -10 10 -23 17 -29 17 -20 0 -54 -49 -74 -108 -19 -55 -23
-61 -51 -64 -40 -4 -48 -26 -11 -30 27 -3 28 -6 31 -62 3 -49 0 -62 -19 -82
-42 -45 -52 -33 -44 51 6 71 6 75 -14 75 -11 0 -23 5 -27 11 -10 16 -55 1 -86
-28 -15 -15 -35 -45 -44 -68 -11 -30 -25 -47 -50 -59 -66 -31 -105 -9 -45 26
41 23 65 62 57 93 -8 33 -48 52 -84 39 -33 -12 -72 -68 -72 -106 0 -34 -25
-48 -46 -26 -14 13 -13 25 2 99 9 46 18 111 18 144 1 51 -2 60 -18 63 -27 6
-46 -24 -46 -72 0 -65 -37 -223 -60 -261 -26 -42 -64 -48 -74 -12 -9 35 -6
135 7 224 15 95 13 103 -18 103 -31 0 -33 -4 -61 -116 -31 -125 -65 -200 -100
-216 -23 -11 -28 -10 -40 7 -21 28 -17 100 11 206 31 120 31 129 0 129 -30 0
-49 -33 -70 -122 -30 -129 -9 -266 44 -283 57 -18 110 20 140 100 l18 48 7
-53 c8 -58 40 -100 78 -100 30 0 83 33 103 64 l17 26 18 -23 c16 -19 22 -21
47 -11 26 9 33 8 57 -13 31 -27 62 -29 112 -8 32 13 38 13 59 -1 27 -18 76
-12 96 12 10 12 14 12 26 -6 18 -26 41 -25 83 4 l34 23 19 -23 c23 -29 46 -30
99 -3 41 21 46 20 62 -16 6 -12 22 8 77 93 23 35 43 62 44 60 2 -2 -2 -22 -8
-45 -12 -48 -3 -89 25 -107 13 -8 28 -5 60 11 43 20 44 20 67 2 29 -24 64 -24
116 -1 39 18 40 18 56 -2 24 -29 41 -11 64 64 22 72 30 81 39 40 8 -44 46 -59
91 -37 26 13 35 23 35 42 0 25 0 25 -31 9 -40 -20 -54 -8 -51 46 4 57 -22 65
-60 20 l-28 -34 0 32 c0 21 -5 32 -15 32 -18 0 -31 -24 -40 -75 -4 -22 -17
-50 -28 -62 -35 -39 -117 -55 -117 -23 0 5 6 10 14 10 8 0 28 13 46 30 25 23
31 36 28 62 -7 77 -103 73 -139 -6 -10 -23 -19 -51 -19 -63 0 -21 -25 -43 -49
-43 -15 0 -13 36 4 93 26 87 0 100 -72 35 l-47 -43 21 35 c35 58 83 186 83
222 0 19 -5 39 -12 46 -14 14 -47 15 -70 2z m37 -72 c-9 -39 -63 -180 -74
-191 -16 -16 11 120 34 171 27 59 51 71 40 20z m-212 -57 c-8 -20 -17 -42 -20
-48 -7 -17 -23 -16 -23 1 0 19 21 79 33 94 19 24 27 -10 10 -47z m79 -181 c-6
-38 -13 -48 -47 -67 -48 -27 -49 -27 -69 -7 -21 20 -21 93 -1 121 12 17 27 23
68 25 59 3 62 0 49 -72z m-502 21 c0 -11 -10 -27 -22 -36 -22 -15 -23 -14 -26
5 -4 24 14 50 34 50 8 0 14 -9 14 -19z m196 -34 c-15 -63 -22 -77 -41 -77 -33
0 -29 59 6 105 36 44 49 33 35 -28z m664 38 c0 -15 -38 -55 -52 -55 -11 0 -10
28 2 51 12 22 50 26 50 4z"/>
<path d="M1991 644 c-30 -22 -56 -83 -42 -97 8 -8 16 -5 26 10 66 95 74 63 34
-141 -25 -129 -25 -153 2 -161 12 -4 25 -3 29 2 5 4 27 60 50 123 49 133 73
183 101 211 43 43 51 -10 19 -131 -43 -160 19 -252 131 -195 27 14 32 14 51 0
67 -46 144 21 137 118 -2 26 -1 47 2 47 18 0 39 -41 39 -77 0 -49 18 -103 34
-103 19 0 53 40 73 85 l18 40 5 -60 c6 -72 23 -78 58 -24 24 36 24 37 43 18
36 -36 109 -18 109 27 0 21 -4 25 -17 19 -34 -14 -48 -15 -63 -6 -13 9 -13 15
-1 43 22 53 20 82 -6 86 -18 3 -28 -9 -58 -65 l-35 -68 6 49 c11 81 11 81 -16
81 -21 0 -31 -11 -59 -65 l-33 -65 7 68 c6 63 5 67 -14 67 -11 0 -26 -9 -34
-20 -14 -20 -14 -20 -52 0 -47 24 -76 25 -115 5 -35 -18 -52 -46 -59 -100 -5
-29 -13 -43 -33 -55 -64 -35 -82 33 -53 196 21 112 11 147 -41 152 -47 5 -91
-38 -136 -133 -22 -44 -37 -71 -34 -60 31 121 32 149 6 175 -24 24 -48 25 -79
4z m495 -239 c12 -48 -13 -105 -46 -105 -25 0 -33 53 -15 96 17 42 51 47 61 9z"/>
<path d="M846 133 c-5 -16 -15 -23 -34 -23 -26 -1 -26 -1 -8 -15 12 -9 17 -22
13 -35 -6 -23 3 -26 21 -8 10 10 17 10 34 -1 19 -12 20 -11 15 8 -3 14 2 26
16 36 21 15 21 15 -4 15 -17 0 -29 8 -36 23 l-10 22 -7 -22z"/>
<path d="M1077 130 c-3 -13 -14 -20 -29 -20 -22 -1 -22 -1 -5 -15 14 -10 17
-20 11 -37 -6 -20 -5 -21 10 -9 13 11 22 12 42 2 23 -10 25 -10 19 10 -5 14
-1 25 12 34 17 13 16 14 -9 15 -18 0 -28 5 -28 14 0 24 -17 28 -23 6z"/>
<path d="M1316 133 c-5 -16 -15 -23 -34 -23 l-26 0 22 -16 c18 -12 20 -19 12
-35 -12 -21 -1 -26 18 -7 10 10 17 10 32 0 27 -16 29 -15 23 8 -4 13 1 26 13
35 18 14 18 14 -7 15 -17 0 -29 8 -36 23 l-10 22 -7 -22z"/>
<path d="M1554 133 c-4 -16 -14 -23 -33 -23 -24 -1 -25 -2 -8 -15 13 -9 17
-20 12 -34 -6 -20 -4 -20 19 -10 20 9 29 9 42 -2 14 -11 16 -10 12 7 -1 12 3
28 11 37 12 15 11 17 -8 17 -13 0 -25 9 -31 23 l-9 22 -7 -22z"/>
<path d="M1786 133 c-5 -16 -15 -23 -34 -23 -26 0 -26 0 -5 -15 14 -10 19 -22
16 -36 -5 -19 -4 -20 15 -8 17 11 24 11 34 1 18 -18 27 -15 21 8 -4 13 1 26
13 35 18 14 18 14 -7 15 -17 0 -29 8 -36 23 l-10 22 -7 -22z"/>
<path d="M2024 133 c-4 -16 -14 -23 -33 -23 -25 -1 -25 -1 -7 -15 11 -9 17
-22 13 -34 -4 -17 -2 -18 19 -9 18 8 27 8 40 -3 14 -11 16 -10 12 7 -1 12 3
28 11 37 12 15 11 17 -8 17 -13 0 -25 9 -31 23 l-9 22 -7 -22z"/>
</g>
</svg>
